<svg width="601" height="401" xmlns="http://www.w3.org/2000/svg" xmlns:xlink="http://www.w3.org/1999/xlink" xml:space="preserve" overflow="hidden"><g transform="translate(-413 -221)"><g><g><g><g><g><path d="M414 622 1014 622 1014 222 414 222Z" fill="#FFFFFF" fill-rule="evenodd" fill-opacity="1"/></g><g><path d="M448.74 593.612 1002.19 593.612 1002.19 233.811 448.74 233.811Z" fill="#FFFFFF" fill-rule="evenodd" fill-opacity="1"/></g><g><path d="M461.78 593.612 461.78 233.811" stroke="#000000" stroke-width="0.5" stroke-linecap="round" stroke-linejoin="round" stroke-miterlimit="4" stroke-opacity="0.1" fill="none" fill-rule="nonzero"/></g><g><path d="M592.966 593.612 592.966 233.811" stroke="#000000" stroke-width="0.5" stroke-linecap="round" stroke-linejoin="round" stroke-miterlimit="4" stroke-opacity="0.1" fill="none" fill-rule="nonzero"/></g><g><path d="M724.152 593.612 724.152 233.811" stroke="#000000" stroke-width="0.5" stroke-linecap="round" stroke-linejoin="round" stroke-miterlimit="4" stroke-opacity="0.1" fill="none" fill-rule="nonzero"/></g><g><path d="M855.34 593.612 855.34 233.811" stroke="#000000" stroke-width="0.5" stroke-linecap="round" stroke-linejoin="round" stroke-miterlimit="4" stroke-opacity="0.1" fill="none" fill-rule="nonzero"/></g><g><path d="M986.525 593.612 986.525 233.811" stroke="#000000" stroke-width="0.5" stroke-linecap="round" stroke-linejoin="round" stroke-miterlimit="4" stroke-opacity="0.1" fill="none" fill-rule="nonzero"/></g><g><path d="M448.74 593.612 1002.19 593.612" stroke="#000000" stroke-width="1" stroke-linecap="round" stroke-linejoin="round" stroke-miterlimit="4" stroke-opacity="1" fill="none" fill-rule="nonzero"/></g><g><path d="M461.78 593.612 461.78 588.888" stroke="#000000" stroke-width="1" stroke-linecap="round" stroke-linejoin="round" stroke-miterlimit="4" stroke-opacity="1" fill="none" fill-rule="nonzero"/></g><g><path d="M592.966 593.612 592.966 588.888" stroke="#000000" stroke-width="1" stroke-linecap="round" stroke-linejoin="round" stroke-miterlimit="4" stroke-opacity="1" fill="none" fill-rule="nonzero"/></g><g><path d="M724.152 593.612 724.152 588.888" stroke="#000000" stroke-width="1" stroke-linecap="round" stroke-linejoin="round" stroke-miterlimit="4" stroke-opacity="1" fill="none" fill-rule="nonzero"/></g><g><path d="M855.34 593.612 855.34 588.888" stroke="#000000" stroke-width="1" stroke-linecap="round" stroke-linejoin="round" stroke-miterlimit="4" stroke-opacity="1" fill="none" fill-rule="nonzero"/></g><g><path d="M986.525 593.612 986.525 588.888" stroke="#000000" stroke-width="1" stroke-linecap="round" stroke-linejoin="round" stroke-miterlimit="4" stroke-opacity="1" fill="none" fill-rule="nonzero"/></g><g><path d="M461.78 601.343C461.178 601.343 460.724 601.64 460.42 602.233 460.119 602.823 459.969 603.713 459.969 604.9 459.969 606.085 460.119 606.975 460.42 607.568 460.724 608.16 461.178 608.455 461.78 608.455 462.385 608.455 462.839 608.16 463.14 607.568 463.444 606.975 463.597 606.085 463.597 604.9 463.597 603.713 463.444 602.823 463.14 602.233 462.839 601.64 462.385 601.343 461.78 601.343M461.78 600.415C462.748 600.415 463.487 600.8 463.996 601.568 464.509 602.33 464.766 603.443 464.766 604.9 464.766 606.355 464.509 607.468 463.996 608.235 463.487 608.997 462.748 609.38 461.78 609.38 460.811 609.38 460.071 608.997 459.557 608.235 459.048 607.468 458.794 606.355 458.794 604.9 458.794 603.443 459.048 602.33 459.557 601.568 460.071 600.8 460.811 600.415 461.78 600.415Z" fill="#000000" fill-rule="nonzero" fill-opacity="1"/></g><g><path d="M586.641 600.573 591.23 600.573 591.23 601.555 587.711 601.555 587.711 603.675C587.881 603.617 588.051 603.575 588.221 603.547 588.391 603.515 588.56 603.5 588.73 603.5 589.695 603.5 590.458 603.765 591.022 604.292 591.585 604.82 591.867 605.537 591.867 606.44 591.867 607.37 591.577 608.093 590.999 608.61 590.42 609.122 589.604 609.38 588.551 609.38 588.188 609.38 587.818 609.35 587.44 609.287 587.065 609.225 586.678 609.133 586.276 609.01L586.276 607.835C586.624 608.022 586.982 608.165 587.353 608.258 587.723 608.35 588.115 608.395 588.527 608.395 589.195 608.395 589.724 608.22 590.113 607.87 590.503 607.517 590.698 607.042 590.698 606.44 590.698 605.838 590.503 605.362 590.113 605.01 589.724 604.66 589.195 604.485 588.527 604.485 588.215 604.485 587.902 604.52 587.59 604.588 587.281 604.657 586.965 604.765 586.641 604.912L586.641 600.573Z" fill="#000000" fill-rule="nonzero" fill-opacity="1"/></g><g><path d="M596.67 601.343C596.068 601.343 595.615 601.64 595.31 602.233 595.009 602.823 594.859 603.713 594.859 604.9 594.859 606.085 595.009 606.975 595.31 607.568 595.615 608.16 596.068 608.455 596.67 608.455 597.276 608.455 597.729 608.16 598.03 607.568 598.334 606.975 598.487 606.085 598.487 604.9 598.487 603.713 598.334 602.823 598.03 602.233 597.729 601.64 597.276 601.343 596.67 601.343M596.67 600.415C597.638 600.415 598.377 600.8 598.886 601.568 599.4 602.33 599.656 603.443 599.656 604.9 599.656 606.355 599.4 607.468 598.886 608.235 598.377 608.997 597.638 609.38 596.67 609.38 595.702 609.38 594.961 608.997 594.448 608.235 593.938 607.468 593.684 606.355 593.684 604.9 593.684 603.443 593.938 602.33 594.448 601.568 594.961 600.8 595.702 600.415 596.67 600.415Z" fill="#000000" fill-rule="nonzero" fill-opacity="1"/></g><g><path d="M714.055 608.228 715.965 608.228 715.965 601.638 713.888 602.052 713.888 600.987 715.953 600.573 717.122 600.573 717.122 608.228 719.03 608.228 719.03 609.213 714.055 609.213 714.055 608.228Z" fill="#000000" fill-rule="nonzero" fill-opacity="1"/></g><g><path d="M723.892 601.343C723.29 601.343 722.838 601.64 722.532 602.233 722.23 602.823 722.08 603.713 722.08 604.9 722.08 606.085 722.23 606.975 722.532 607.568 722.838 608.16 723.29 608.455 723.892 608.455 724.497 608.455 724.95 608.16 725.253 607.568 725.557 606.975 725.71 606.085 725.71 604.9 725.71 603.713 725.557 602.823 725.253 602.233 724.95 601.64 724.497 601.343 723.892 601.343M723.892 600.415C724.86 600.415 725.6 600.8 726.108 601.568 726.62 602.33 726.878 603.443 726.878 604.9 726.878 606.355 726.62 607.468 726.108 608.235 725.6 608.997 724.86 609.38 723.892 609.38 722.925 609.38 722.182 608.997 721.67 608.235 721.16 607.468 720.905 606.355 720.905 604.9 720.905 603.443 721.16 602.33 721.67 601.568 722.182 600.8 722.925 600.415 723.892 600.415Z" fill="#000000" fill-rule="nonzero" fill-opacity="1"/></g><g><path d="M731.432 601.343C730.83 601.343 730.378 601.64 730.073 602.233 729.772 602.823 729.622 603.713 729.622 604.9 729.622 606.085 729.772 606.975 730.073 607.568 730.378 608.16 730.83 608.455 731.432 608.455 732.037 608.455 732.49 608.16 732.792 607.568 733.098 606.975 733.25 606.085 733.25 604.9 733.25 603.713 733.098 602.823 732.792 602.233 732.49 601.64 732.037 601.343 731.432 601.343M731.432 600.415C732.4 600.415 733.14 600.8 733.65 601.568 734.162 602.33 734.417 603.443 734.417 604.9 734.417 606.355 734.162 607.468 733.65 608.235 733.14 608.997 732.4 609.38 731.432 609.38 730.465 609.38 729.723 608.997 729.21 608.235 728.703 607.468 728.448 606.355 728.448 604.9 728.448 603.443 728.703 602.33 729.21 601.568 729.723 600.8 730.465 600.415 731.432 600.415Z" fill="#000000" fill-rule="nonzero" fill-opacity="1"/></g><g><path d="M845.24 608.228 847.15 608.228 847.15 601.638 845.073 602.052 845.073 600.987 847.14 600.573 848.307 600.573 848.307 608.228 850.218 608.228 850.218 609.213 845.24 609.213 845.24 608.228Z" fill="#000000" fill-rule="nonzero" fill-opacity="1"/></g><g><path d="M852.59 600.573 857.18 600.573 857.18 601.555 853.66 601.555 853.66 603.675C853.83 603.617 854 603.575 854.17 603.547 854.34 603.515 854.51 603.5 854.68 603.5 855.642 603.5 856.407 603.765 856.97 604.292 857.532 604.82 857.815 605.537 857.815 606.44 857.815 607.37 857.525 608.093 856.948 608.61 856.37 609.122 855.552 609.38 854.5 609.38 854.138 609.38 853.765 609.35 853.388 609.287 853.015 609.225 852.628 609.133 852.225 609.01L852.225 607.835C852.573 608.022 852.932 608.165 853.302 608.258 853.672 608.35 854.065 608.395 854.478 608.395 855.145 608.395 855.672 608.22 856.062 607.87 856.453 607.517 856.647 607.042 856.647 606.44 856.647 605.838 856.453 605.362 856.062 605.01 855.672 604.66 855.145 604.485 854.478 604.485 854.165 604.485 853.853 604.52 853.54 604.588 853.23 604.657 852.912 604.765 852.59 604.912L852.59 600.573Z" fill="#000000" fill-rule="nonzero" fill-opacity="1"/></g><g><path d="M862.62 601.343C862.017 601.343 861.562 601.64 861.26 602.233 860.958 602.823 860.807 603.713 860.807 604.9 860.807 606.085 860.958 606.975 861.26 607.568 861.562 608.16 862.017 608.455 862.62 608.455 863.225 608.455 863.677 608.16 863.98 607.568 864.282 606.975 864.435 606.085 864.435 604.9 864.435 603.713 864.282 602.823 863.98 602.233 863.677 601.64 863.225 601.343 862.62 601.343M862.62 600.415C863.588 600.415 864.328 600.8 864.835 601.568 865.348 602.33 865.605 603.443 865.605 604.9 865.605 606.355 865.348 607.468 864.835 608.235 864.328 608.997 863.588 609.38 862.62 609.38 861.652 609.38 860.91 608.997 860.397 608.235 859.888 607.468 859.633 606.355 859.633 604.9 859.633 603.443 859.888 602.33 860.397 601.568 860.91 600.8 861.652 600.415 862.62 600.415Z" fill="#000000" fill-rule="nonzero" fill-opacity="1"/></g><g><path d="M977.448 608.228 981.528 608.228 981.528 609.213 976.042 609.213 976.042 608.228C976.485 607.77 977.09 607.155 977.852 606.383 978.62 605.608 979.102 605.108 979.3 604.883 979.675 604.463 979.935 604.108 980.083 603.818 980.232 603.525 980.307 603.237 980.307 602.955 980.307 602.497 980.145 602.122 979.82 601.833 979.5 601.545 979.083 601.4 978.565 601.4 978.198 601.4 977.81 601.463 977.403 601.59 976.997 601.718 976.562 601.912 976.1 602.17L976.1 600.987C976.57 600.8 977.01 600.657 977.42 600.56 977.828 600.463 978.203 600.415 978.542 600.415 979.438 600.415 980.15 600.64 980.682 601.088 981.215 601.535 981.482 602.133 981.482 602.88 981.482 603.235 981.415 603.573 981.28 603.892 981.148 604.21 980.907 604.585 980.555 605.017 980.46 605.13 980.153 605.453 979.635 605.987 979.117 606.52 978.39 607.267 977.448 608.228Z" fill="#000000" fill-rule="nonzero" fill-opacity="1"/></g><g><path d="M986.482 601.343C985.88 601.343 985.427 601.64 985.122 602.233 984.82 602.823 984.67 603.713 984.67 604.9 984.67 606.085 984.82 606.975 985.122 607.568 985.427 608.16 985.88 608.455 986.482 608.455 987.088 608.455 987.54 608.16 987.843 607.568 988.148 606.975 988.3 606.085 988.3 604.9 988.3 603.713 988.148 602.823 987.843 602.233 987.54 601.64 987.088 601.343 986.482 601.343M986.482 600.415C987.45 600.415 988.19 600.8 988.698 601.568 989.21 602.33 989.468 603.443 989.468 604.9 989.468 606.355 989.21 607.468 988.698 608.235 988.19 608.997 987.45 609.38 986.482 609.38 985.515 609.38 984.773 608.997 984.26 608.235 983.75 607.468 983.495 606.355 983.495 604.9 983.495 603.443 983.75 602.33 984.26 601.568 984.773 600.8 985.515 600.415 986.482 600.415Z" fill="#000000" fill-rule="nonzero" fill-opacity="1"/></g><g><path d="M994.023 601.343C993.42 601.343 992.968 601.64 992.662 602.233 992.36 602.823 992.21 603.713 992.21 604.9 992.21 606.085 992.36 606.975 992.662 607.568 992.968 608.16 993.42 608.455 994.023 608.455 994.628 608.455 995.08 608.16 995.383 607.568 995.688 606.975 995.84 606.085 995.84 604.9 995.84 603.713 995.688 602.823 995.383 602.233 995.08 601.64 994.628 601.343 994.023 601.343M994.023 600.415C994.99 600.415 995.73 600.8 996.24 601.568 996.753 602.33 997.008 603.443 997.008 604.9 997.008 606.355 996.753 607.468 996.24 608.235 995.73 608.997 994.99 609.38 994.023 609.38 993.055 609.38 992.312 608.997 991.8 608.235 991.292 607.468 991.037 606.355 991.037 604.9 991.037 603.443 991.292 602.33 991.8 601.568 992.312 600.8 993.055 600.415 994.023 600.415Z" fill="#000000" fill-rule="nonzero" fill-opacity="1"/></g><g><path d="M448.74 545.715 1002.19 545.715" stroke="#000000" stroke-width="0.5" stroke-linecap="round" stroke-linejoin="round" stroke-miterlimit="4" stroke-opacity="0.1" fill="none" fill-rule="nonzero"/></g><g><path d="M448.74 470.284 1002.19 470.284" stroke="#000000" stroke-width="0.5" stroke-linecap="round" stroke-linejoin="round" stroke-miterlimit="4" stroke-opacity="0.1" fill="none" fill-rule="nonzero"/></g><g><path d="M448.74 394.854 1002.19 394.854" stroke="#000000" stroke-width="0.5" stroke-linecap="round" stroke-linejoin="round" stroke-miterlimit="4" stroke-opacity="0.1" fill="none" fill-rule="nonzero"/></g><g><path d="M448.74 319.424 1002.19 319.424" stroke="#000000" stroke-width="0.5" stroke-linecap="round" stroke-linejoin="round" stroke-miterlimit="4" stroke-opacity="0.1" fill="none" fill-rule="nonzero"/></g><g><path d="M448.74 243.994 1002.19 243.994" stroke="#000000" stroke-width="0.5" stroke-linecap="round" stroke-linejoin="round" stroke-miterlimit="4" stroke-opacity="0.1" fill="none" fill-rule="nonzero"/></g><g><path d="M448.74 593.612 448.74 233.811" stroke="#000000" stroke-width="1" stroke-linecap="round" stroke-linejoin="round" stroke-miterlimit="4" stroke-opacity="1" fill="none" fill-rule="nonzero"/></g><g><path d="M448.74 545.715 453.464 545.715" stroke="#000000" stroke-width="1" stroke-linecap="round" stroke-linejoin="round" stroke-miterlimit="4" stroke-opacity="1" fill="none" fill-rule="nonzero"/></g><g><path d="M448.74 470.284 453.464 470.284" stroke="#000000" stroke-width="1" stroke-linecap="round" stroke-linejoin="round" stroke-miterlimit="4" stroke-opacity="1" fill="none" fill-rule="nonzero"/></g><g><path d="M448.74 394.854 453.464 394.854" stroke="#000000" stroke-width="1" stroke-linecap="round" stroke-linejoin="round" stroke-miterlimit="4" stroke-opacity="1" fill="none" fill-rule="nonzero"/></g><g><path d="M448.74 319.424 453.464 319.424" stroke="#000000" stroke-width="1" stroke-linecap="round" stroke-linejoin="round" stroke-miterlimit="4" stroke-opacity="1" fill="none" fill-rule="nonzero"/></g><g><path d="M448.74 243.994 453.464 243.994" stroke="#000000" stroke-width="1" stroke-linecap="round" stroke-linejoin="round" stroke-miterlimit="4" stroke-opacity="1" fill="none" fill-rule="nonzero"/></g><g><path d="M435.66 549.05 439.74 549.05 439.74 550.035 434.254 550.035 434.254 549.05C434.697 548.593 435.301 547.978 436.065 547.205 436.833 546.427 437.315 545.927 437.512 545.705 437.886 545.285 438.146 544.93 438.293 544.64 438.444 544.348 438.519 544.06 438.519 543.777 438.519 543.32 438.357 542.945 438.033 542.655 437.712 542.367 437.294 542.223 436.777 542.223 436.41 542.223 436.023 542.285 435.614 542.412 435.209 542.54 434.775 542.733 434.312 542.99L434.312 541.81C434.782 541.622 435.222 541.48 435.631 541.383 436.04 541.285 436.414 541.237 436.754 541.237 437.649 541.237 438.363 541.463 438.895 541.91 439.427 542.358 439.694 542.955 439.694 543.703 439.694 544.057 439.626 544.395 439.491 544.715 439.36 545.032 439.119 545.405 438.768 545.838 438.671 545.95 438.364 546.272 437.848 546.81 437.331 547.343 436.601 548.09 435.66 549.05Z" fill="#000000" fill-rule="nonzero" fill-opacity="1"/></g><g><path d="M437.344 466.982 434.393 471.595 437.344 471.595 437.344 466.982M437.037 465.964 438.507 465.964 438.507 471.595 439.74 471.595 439.74 472.568 438.507 472.568 438.507 474.605 437.344 474.605 437.344 472.568 433.444 472.568 433.444 471.439 437.037 465.964Z" fill="#000000" fill-rule="nonzero" fill-opacity="1"/></g><g><path d="M436.858 394.388C436.333 394.388 435.917 394.568 435.608 394.926 435.303 395.285 435.151 395.777 435.151 396.402 435.151 397.023 435.303 397.515 435.608 397.878 435.917 398.237 436.333 398.416 436.858 398.416 437.383 398.416 437.797 398.237 438.102 397.878 438.411 397.515 438.565 397.023 438.565 396.402 438.565 395.777 438.411 395.285 438.102 394.926 437.797 394.568 437.383 394.388 436.858 394.388M439.178 390.725 439.178 391.79C438.885 391.651 438.588 391.545 438.287 391.471 437.99 391.398 437.695 391.362 437.402 391.362 436.63 391.362 436.04 391.622 435.631 392.143 435.226 392.664 434.995 393.451 434.937 394.504 435.164 394.168 435.45 393.912 435.793 393.734 436.137 393.553 436.515 393.462 436.927 393.462 437.795 393.462 438.48 393.727 438.982 394.255 439.487 394.78 439.74 395.495 439.74 396.402 439.74 397.289 439.478 398.001 438.953 398.538 438.428 399.074 437.73 399.342 436.858 399.342 435.859 399.342 435.095 398.96 434.566 398.196 434.038 397.428 433.773 396.317 433.773 394.863 433.773 393.497 434.098 392.409 434.746 391.599 435.394 390.785 436.264 390.378 437.356 390.378 437.649 390.378 437.944 390.407 438.241 390.464 438.542 390.522 438.854 390.609 439.178 390.725Z" fill="#000000" fill-rule="nonzero" fill-opacity="1"/></g><g><path d="M436.777 319.641C436.221 319.641 435.783 319.789 435.463 320.087 435.147 320.384 434.989 320.793 434.989 321.314 434.989 321.834 435.147 322.243 435.463 322.54 435.783 322.837 436.221 322.986 436.777 322.986 437.332 322.986 437.77 322.837 438.091 322.54 438.411 322.24 438.571 321.831 438.571 321.314 438.571 320.793 438.411 320.384 438.091 320.087 437.774 319.789 437.336 319.641 436.777 319.641M435.608 319.143C435.106 319.02 434.715 318.786 434.433 318.443 434.155 318.1 434.017 317.681 434.017 317.187 434.017 316.497 434.261 315.951 434.751 315.55 435.245 315.148 435.92 314.948 436.777 314.948 437.637 314.948 438.312 315.148 438.802 315.55 439.292 315.951 439.537 316.497 439.537 317.187 439.537 317.681 439.396 318.1 439.115 318.443 438.837 318.786 438.449 319.02 437.952 319.143 438.515 319.275 438.953 319.531 439.265 319.913 439.582 320.295 439.74 320.762 439.74 321.314 439.74 322.151 439.483 322.793 438.97 323.241 438.461 323.688 437.73 323.912 436.777 323.912 435.824 323.912 435.091 323.688 434.578 323.241 434.069 322.793 433.814 322.151 433.814 321.314 433.814 320.762 433.972 320.295 434.289 319.913 434.605 319.531 435.045 319.275 435.608 319.143M435.18 317.297C435.18 317.745 435.319 318.094 435.596 318.345 435.878 318.595 436.272 318.721 436.777 318.721 437.278 318.721 437.67 318.595 437.952 318.345 438.237 318.094 438.38 317.745 438.38 317.297 438.38 316.85 438.237 316.5 437.952 316.25 437.67 315.999 437.278 315.874 436.777 315.874 436.272 315.874 435.878 315.999 435.596 316.25 435.319 316.5 435.18 316.85 435.18 317.297Z" fill="#000000" fill-rule="nonzero" fill-opacity="1"/></g><g><path d="M426.916 247.33 428.826 247.33 428.826 240.739 426.748 241.156 426.748 240.091 428.814 239.674 429.983 239.674 429.983 247.33 431.893 247.33 431.893 248.314 426.916 248.314 426.916 247.33Z" fill="#000000" fill-rule="nonzero" fill-opacity="1"/></g><g><path d="M436.754 240.444C436.152 240.444 435.699 240.741 435.394 241.335 435.093 241.925 434.942 242.814 434.942 244.003 434.942 245.187 435.093 246.076 435.394 246.671 435.699 247.261 436.152 247.556 436.754 247.556 437.359 247.556 437.813 247.261 438.114 246.671 438.418 246.076 438.571 245.187 438.571 244.003 438.571 242.814 438.418 241.925 438.114 241.335 437.813 240.741 437.359 240.444 436.754 240.444M436.754 239.518C437.722 239.518 438.461 239.902 438.97 240.669 439.483 241.433 439.74 242.544 439.74 244.003 439.74 245.457 439.483 246.568 438.97 247.336 438.461 248.1 437.722 248.482 436.754 248.482 435.785 248.482 435.045 248.1 434.532 247.336 434.022 246.568 433.768 245.457 433.768 244.003 433.768 242.544 434.022 241.433 434.532 240.669 435.045 239.902 435.785 239.518 436.754 239.518Z" fill="#000000" fill-rule="nonzero" fill-opacity="1"/></g><g><path d="M468.004 394.854C468.004 396.842 466.392 398.454 464.404 398.454 462.415 398.454 460.803 396.842 460.803 394.854 460.803 392.866 462.415 391.254 464.404 391.254 466.392 391.254 468.004 392.866 468.004 394.854Z" fill="#000000" fill-rule="evenodd" fill-opacity="1"/></g><g><path d="M470.627 394.854C470.627 396.842 469.015 398.454 467.027 398.454 465.039 398.454 463.427 396.842 463.427 394.854 463.427 392.866 465.039 391.254 467.027 391.254 469.015 391.254 470.627 392.866 470.627 394.854Z" fill="#000000" fill-rule="evenodd" fill-opacity="1"/></g><g><path d="M473.251 243.994C473.251 245.982 471.639 247.594 469.651 247.594 467.663 247.594 466.051 245.982 466.051 243.994 466.051 242.006 467.663 240.394 469.651 240.394 471.639 240.394 473.251 242.006 473.251 243.994Z" fill="#000000" fill-rule="evenodd" fill-opacity="1"/></g><g><path d="M475.875 394.854C475.875 396.842 474.263 398.454 472.275 398.454 470.287 398.454 468.675 396.842 468.675 394.854 468.675 392.866 470.287 391.254 472.275 391.254 474.263 391.254 475.875 392.866 475.875 394.854Z" fill="#000000" fill-rule="evenodd" fill-opacity="1"/></g><g><path d="M478.499 243.994C478.499 245.982 476.887 247.594 474.898 247.594 472.91 247.594 471.298 245.982 471.298 243.994 471.298 242.006 472.91 240.394 474.898 240.394 476.887 240.394 478.499 242.006 478.499 243.994Z" fill="#000000" fill-rule="evenodd" fill-opacity="1"/></g><g><path d="M481.122 243.994C481.122 245.982 479.51 247.594 477.522 247.594 475.534 247.594 473.922 245.982 473.922 243.994 473.922 242.006 475.534 240.394 477.522 240.394 479.51 240.394 481.122 242.006 481.122 243.994Z" fill="#000000" fill-rule="evenodd" fill-opacity="1"/></g><g><path d="M483.746 394.854C483.746 396.842 482.134 398.454 480.146 398.454 478.158 398.454 476.546 396.842 476.546 394.854 476.546 392.866 478.158 391.254 480.146 391.254 482.134 391.254 483.746 392.866 483.746 394.854Z" fill="#000000" fill-rule="evenodd" fill-opacity="1"/></g><g><path d="M486.37 243.994C486.37 245.982 484.758 247.594 482.77 247.594 480.781 247.594 479.169 245.982 479.169 243.994 479.169 242.006 480.781 240.394 482.77 240.394 484.758 240.394 486.37 242.006 486.37 243.994Z" fill="#000000" fill-rule="evenodd" fill-opacity="1"/></g><g><path d="M488.993 243.994C488.993 245.982 487.381 247.594 485.393 247.594 483.405 247.594 481.793 245.982 481.793 243.994 481.793 242.006 483.405 240.394 485.393 240.394 487.381 240.394 488.993 242.006 488.993 243.994Z" fill="#000000" fill-rule="evenodd" fill-opacity="1"/></g><g><path d="M491.617 243.994C491.617 245.982 490.005 247.594 488.017 247.594 486.029 247.594 484.417 245.982 484.417 243.994 484.417 242.006 486.029 240.394 488.017 240.394 490.005 240.394 491.617 242.006 491.617 243.994Z" fill="#000000" fill-rule="evenodd" fill-opacity="1"/></g><g><path d="M494.241 394.854C494.241 396.842 492.629 398.454 490.641 398.454 488.653 398.454 487.041 396.842 487.041 394.854 487.041 392.866 488.653 391.254 490.641 391.254 492.629 391.254 494.241 392.866 494.241 394.854Z" fill="#000000" fill-rule="evenodd" fill-opacity="1"/></g><g><path d="M496.865 319.424C496.865 321.412 495.253 323.024 493.264 323.024 491.276 323.024 489.664 321.412 489.664 319.424 489.664 317.436 491.276 315.824 493.264 315.824 495.253 315.824 496.865 317.436 496.865 319.424Z" fill="#000000" fill-rule="evenodd" fill-opacity="1"/></g><g><path d="M499.488 243.994C499.488 245.982 497.876 247.594 495.888 247.594 493.9 247.594 492.288 245.982 492.288 243.994 492.288 242.006 493.9 240.394 495.888 240.394 497.876 240.394 499.488 242.006 499.488 243.994Z" fill="#000000" fill-rule="evenodd" fill-opacity="1"/></g><g><path d="M502.112 319.424C502.112 321.412 500.5 323.024 498.512 323.024 496.524 323.024 494.912 321.412 494.912 319.424 494.912 317.436 496.524 315.824 498.512 315.824 500.5 315.824 502.112 317.436 502.112 319.424Z" fill="#000000" fill-rule="evenodd" fill-opacity="1"/></g><g><path d="M504.736 243.994C504.736 245.982 503.124 247.594 501.136 247.594 499.148 247.594 497.536 245.982 497.536 243.994 497.536 242.006 499.148 240.394 501.136 240.394 503.124 240.394 504.736 242.006 504.736 243.994Z" fill="#000000" fill-rule="evenodd" fill-opacity="1"/></g><g><path d="M507.359 243.994C507.359 245.982 505.748 247.594 503.759 247.594 501.771 247.594 500.159 245.982 500.159 243.994 500.159 242.006 501.771 240.394 503.759 240.394 505.748 240.394 507.359 242.006 507.359 243.994Z" fill="#000000" fill-rule="evenodd" fill-opacity="1"/></g><g><path d="M509.983 394.854C509.983 396.842 508.371 398.454 506.383 398.454 504.395 398.454 502.783 396.842 502.783 394.854 502.783 392.866 504.395 391.254 506.383 391.254 508.371 391.254 509.983 392.866 509.983 394.854Z" fill="#000000" fill-rule="evenodd" fill-opacity="1"/></g><g><path d="M512.607 319.424C512.607 321.412 510.995 323.024 509.007 323.024 507.019 323.024 505.407 321.412 505.407 319.424 505.407 317.436 507.019 315.824 509.007 315.824 510.995 315.824 512.607 317.436 512.607 319.424Z" fill="#000000" fill-rule="evenodd" fill-opacity="1"/></g><g><path d="M515.23 243.994C515.23 245.982 513.619 247.594 511.63 247.594 509.642 247.594 508.031 245.982 508.031 243.994 508.031 242.006 509.642 240.394 511.63 240.394 513.619 240.394 515.23 242.006 515.23 243.994Z" fill="#000000" fill-rule="evenodd" fill-opacity="1"/></g><g><path d="M517.854 243.994C517.854 245.982 516.242 247.594 514.254 247.594 512.266 247.594 510.654 245.982 510.654 243.994 510.654 242.006 512.266 240.394 514.254 240.394 516.242 240.394 517.854 242.006 517.854 243.994Z" fill="#000000" fill-rule="evenodd" fill-opacity="1"/></g><g><path d="M520.478 394.854C520.478 396.842 518.866 398.454 516.878 398.454 514.89 398.454 513.278 396.842 513.278 394.854 513.278 392.866 514.89 391.254 516.878 391.254 518.866 391.254 520.478 392.866 520.478 394.854Z" fill="#000000" fill-rule="evenodd" fill-opacity="1"/></g><g><path d="M523.102 394.854C523.102 396.842 521.49 398.454 519.502 398.454 517.514 398.454 515.902 396.842 515.902 394.854 515.902 392.866 517.514 391.254 519.502 391.254 521.49 391.254 523.102 392.866 523.102 394.854Z" fill="#000000" fill-rule="evenodd" fill-opacity="1"/></g><g><path d="M525.726 243.994C525.726 245.982 524.114 247.594 522.125 247.594 520.137 247.594 518.526 245.982 518.526 243.994 518.526 242.006 520.137 240.394 522.125 240.394 524.114 240.394 525.726 242.006 525.726 243.994Z" fill="#000000" fill-rule="evenodd" fill-opacity="1"/></g><g><path d="M528.349 394.854C528.349 396.842 526.737 398.454 524.749 398.454 522.761 398.454 521.149 396.842 521.149 394.854 521.149 392.866 522.761 391.254 524.749 391.254 526.737 391.254 528.349 392.866 528.349 394.854Z" fill="#000000" fill-rule="evenodd" fill-opacity="1"/></g><g><path d="M530.973 243.994C530.973 245.982 529.361 247.594 527.373 247.594 525.385 247.594 523.773 245.982 523.773 243.994 523.773 242.006 525.385 240.394 527.373 240.394 529.361 240.394 530.973 242.006 530.973 243.994Z" fill="#000000" fill-rule="evenodd" fill-opacity="1"/></g><g><path d="M533.597 243.994C533.597 245.982 531.985 247.594 529.997 247.594 528.009 247.594 526.397 245.982 526.397 243.994 526.397 242.006 528.009 240.394 529.997 240.394 531.985 240.394 533.597 242.006 533.597 243.994Z" fill="#000000" fill-rule="evenodd" fill-opacity="1"/></g><g><path d="M536.221 319.424C536.221 321.412 534.609 323.024 532.62 323.024 530.632 323.024 529.021 321.412 529.021 319.424 529.021 317.436 530.632 315.824 532.62 315.824 534.609 315.824 536.221 317.436 536.221 319.424Z" fill="#000000" fill-rule="evenodd" fill-opacity="1"/></g><g><path d="M538.844 243.994C538.844 245.982 537.232 247.594 535.244 247.594 533.256 247.594 531.644 245.982 531.644 243.994 531.644 242.006 533.256 240.394 535.244 240.394 537.232 240.394 538.844 242.006 538.844 243.994Z" fill="#000000" fill-rule="evenodd" fill-opacity="1"/></g><g><path d="M541.468 243.994C541.468 245.982 539.856 247.594 537.868 247.594 535.88 247.594 534.268 245.982 534.268 243.994 534.268 242.006 535.88 240.394 537.868 240.394 539.856 240.394 541.468 242.006 541.468 243.994Z" fill="#000000" fill-rule="evenodd" fill-opacity="1"/></g><g><path d="M544.091 243.994C544.091 245.982 542.48 247.594 540.492 247.594 538.503 247.594 536.891 245.982 536.891 243.994 536.891 242.006 538.503 240.394 540.492 240.394 542.48 240.394 544.091 242.006 544.091 243.994Z" fill="#000000" fill-rule="evenodd" fill-opacity="1"/></g><g><path d="M546.715 243.994C546.715 245.982 545.104 247.594 543.115 247.594 541.127 247.594 539.515 245.982 539.515 243.994 539.515 242.006 541.127 240.394 543.115 240.394 545.103 240.394 546.715 242.006 546.715 243.994Z" fill="#000000" fill-rule="evenodd" fill-opacity="1"/></g><g><path d="M549.339 394.854C549.339 396.842 547.727 398.454 545.739 398.454 543.751 398.454 542.139 396.842 542.139 394.854 542.139 392.866 543.751 391.254 545.739 391.254 547.727 391.254 549.339 392.866 549.339 394.854Z" fill="#000000" fill-rule="evenodd" fill-opacity="1"/></g><g><path d="M551.963 243.994C551.963 245.982 550.351 247.594 548.363 247.594 546.375 247.594 544.763 245.982 544.763 243.994 544.763 242.006 546.375 240.394 548.363 240.394 550.351 240.394 551.963 242.006 551.963 243.994Z" fill="#000000" fill-rule="evenodd" fill-opacity="1"/></g><g><path d="M554.586 394.854C554.586 396.842 552.975 398.454 550.987 398.454 548.998 398.454 547.386 396.842 547.386 394.854 547.386 392.866 548.998 391.254 550.987 391.254 552.975 391.254 554.586 392.866 554.586 394.854Z" fill="#000000" fill-rule="evenodd" fill-opacity="1"/></g><g><path d="M557.21 243.994C557.21 245.982 555.599 247.594 553.61 247.594 551.622 247.594 550.01 245.982 550.01 243.994 550.01 242.006 551.622 240.394 553.61 240.394 555.598 240.394 557.21 242.006 557.21 243.994Z" fill="#000000" fill-rule="evenodd" fill-opacity="1"/></g><g><path d="M559.834 243.994C559.834 245.982 558.222 247.594 556.234 247.594 554.246 247.594 552.634 245.982 552.634 243.994 552.634 242.006 554.246 240.394 556.234 240.394 558.222 240.394 559.834 242.006 559.834 243.994Z" fill="#000000" fill-rule="evenodd" fill-opacity="1"/></g><g><path d="M562.458 394.854C562.458 396.842 560.846 398.454 558.858 398.454 556.87 398.454 555.258 396.842 555.258 394.854 555.258 392.866 556.87 391.254 558.858 391.254 560.846 391.254 562.458 392.866 562.458 394.854Z" fill="#000000" fill-rule="evenodd" fill-opacity="1"/></g><g><path d="M565.081 583.43C565.081 585.418 563.47 587.03 561.482 587.03 559.493 587.03 557.881 585.418 557.881 583.43 557.881 581.442 559.493 579.83 561.482 579.83 563.47 579.83 565.081 581.442 565.081 583.43Z" fill="#000000" fill-rule="evenodd" fill-opacity="1"/></g><g><path d="M567.705 243.994C567.705 245.982 566.094 247.594 564.105 247.594 562.117 247.594 560.505 245.982 560.505 243.994 560.505 242.006 562.117 240.394 564.105 240.394 566.093 240.394 567.705 242.006 567.705 243.994Z" fill="#000000" fill-rule="evenodd" fill-opacity="1"/></g><g><path d="M570.329 243.994C570.329 245.982 568.717 247.594 566.729 247.594 564.741 247.594 563.129 245.982 563.129 243.994 563.129 242.006 564.741 240.394 566.729 240.394 568.717 240.394 570.329 242.006 570.329 243.994Z" fill="#000000" fill-rule="evenodd" fill-opacity="1"/></g><g><path d="M572.953 243.994C572.953 245.982 571.341 247.594 569.352 247.594 567.364 247.594 565.753 245.982 565.753 243.994 565.753 242.006 567.364 240.394 569.352 240.394 571.341 240.394 572.953 242.006 572.953 243.994Z" fill="#000000" fill-rule="evenodd" fill-opacity="1"/></g><g><path d="M575.576 394.854C575.576 396.842 573.964 398.454 571.976 398.454 569.988 398.454 568.376 396.842 568.376 394.854 568.376 392.866 569.988 391.254 571.976 391.254 573.964 391.254 575.576 392.866 575.576 394.854Z" fill="#000000" fill-rule="evenodd" fill-opacity="1"/></g><g><path d="M578.2 243.994C578.2 245.982 576.588 247.594 574.6 247.594 572.612 247.594 571 245.982 571 243.994 571 242.006 572.612 240.394 574.6 240.394 576.588 240.394 578.2 242.006 578.2 243.994Z" fill="#000000" fill-rule="evenodd" fill-opacity="1"/></g><g><path d="M580.824 243.994C580.824 245.982 579.212 247.594 577.224 247.594 575.236 247.594 573.624 245.982 573.624 243.994 573.624 242.006 575.235 240.394 577.224 240.394 579.212 240.394 580.824 242.006 580.824 243.994Z" fill="#000000" fill-rule="evenodd" fill-opacity="1"/></g><g><path d="M583.448 243.994C583.448 245.982 581.836 247.594 579.847 247.594 577.859 247.594 576.247 245.982 576.247 243.994 576.247 242.006 577.859 240.394 579.847 240.394 581.836 240.394 583.448 242.006 583.448 243.994Z" fill="#000000" fill-rule="evenodd" fill-opacity="1"/></g><g><path d="M586.071 243.994C586.071 245.982 584.459 247.594 582.471 247.594 580.483 247.594 578.871 245.982 578.871 243.994 578.871 242.006 580.483 240.394 582.471 240.394 584.459 240.394 586.071 242.006 586.071 243.994Z" fill="#000000" fill-rule="evenodd" fill-opacity="1"/></g><g><path d="M588.695 394.854C588.695 396.842 587.083 398.454 585.095 398.454 583.107 398.454 581.495 396.842 581.495 394.854 581.495 392.866 583.107 391.254 585.095 391.254 587.083 391.254 588.695 392.866 588.695 394.854Z" fill="#000000" fill-rule="evenodd" fill-opacity="1"/></g><g><path d="M591.319 243.994C591.319 245.982 589.707 247.594 587.719 247.594 585.731 247.594 584.119 245.982 584.119 243.994 584.119 242.006 585.731 240.394 587.719 240.394 589.707 240.394 591.319 242.006 591.319 243.994Z" fill="#000000" fill-rule="evenodd" fill-opacity="1"/></g><g><path d="M593.943 243.994C593.943 245.982 592.331 247.594 590.343 247.594 588.354 247.594 586.742 245.982 586.742 243.994 586.742 242.006 588.354 240.394 590.343 240.394 592.331 240.394 593.943 242.006 593.943 243.994Z" fill="#000000" fill-rule="evenodd" fill-opacity="1"/></g><g><path d="M596.566 394.854C596.566 396.842 594.954 398.454 592.966 398.454 590.978 398.454 589.366 396.842 589.366 394.854 589.366 392.866 590.978 391.254 592.966 391.254 594.954 391.254 596.566 392.866 596.566 394.854Z" fill="#000000" fill-rule="evenodd" fill-opacity="1"/></g><g><path d="M599.19 394.854C599.19 396.842 597.578 398.454 595.59 398.454 593.602 398.454 591.99 396.842 591.99 394.854 591.99 392.866 593.602 391.254 595.59 391.254 597.578 391.254 599.19 392.866 599.19 394.854Z" fill="#000000" fill-rule="evenodd" fill-opacity="1"/></g><g><path d="M601.814 394.854C601.814 396.842 600.202 398.454 598.214 398.454 596.226 398.454 594.614 396.842 594.614 394.854 594.614 392.866 596.226 391.254 598.214 391.254 600.202 391.254 601.814 392.866 601.814 394.854Z" fill="#000000" fill-rule="evenodd" fill-opacity="1"/></g><g><path d="M604.437 394.854C604.437 396.842 602.826 398.454 600.837 398.454 598.849 398.454 597.237 396.842 597.237 394.854 597.237 392.866 598.849 391.254 600.837 391.254 602.825 391.254 604.437 392.866 604.437 394.854Z" fill="#000000" fill-rule="evenodd" fill-opacity="1"/></g><g><path d="M607.061 394.854C607.061 396.842 605.449 398.454 603.461 398.454 601.473 398.454 599.861 396.842 599.861 394.854 599.861 392.866 601.473 391.254 603.461 391.254 605.449 391.254 607.061 392.866 607.061 394.854Z" fill="#000000" fill-rule="evenodd" fill-opacity="1"/></g><g><path d="M609.685 394.854C609.685 396.842 608.073 398.454 606.085 398.454 604.097 398.454 602.485 396.842 602.485 394.854 602.485 392.866 604.096 391.254 606.085 391.254 608.073 391.254 609.685 392.866 609.685 394.854Z" fill="#000000" fill-rule="evenodd" fill-opacity="1"/></g><g><path d="M612.308 394.854C612.308 396.842 610.697 398.454 608.708 398.454 606.72 398.454 605.109 396.842 605.109 394.854 605.109 392.866 606.72 391.254 608.708 391.254 610.697 391.254 612.308 392.866 612.308 394.854Z" fill="#000000" fill-rule="evenodd" fill-opacity="1"/></g><g><path d="M614.932 394.854C614.932 396.842 613.32 398.454 611.332 398.454 609.344 398.454 607.732 396.842 607.732 394.854 607.732 392.866 609.344 391.254 611.332 391.254 613.32 391.254 614.932 392.866 614.932 394.854Z" fill="#000000" fill-rule="evenodd" fill-opacity="1"/></g><g><path d="M617.556 394.854C617.556 396.842 615.944 398.454 613.956 398.454 611.968 398.454 610.356 396.842 610.356 394.854 610.356 392.866 611.968 391.254 613.956 391.254 615.944 391.254 617.556 392.866 617.556 394.854Z" fill="#000000" fill-rule="evenodd" fill-opacity="1"/></g><g><path d="M620.18 394.854C620.18 396.842 618.568 398.454 616.58 398.454 614.592 398.454 612.98 396.842 612.98 394.854 612.98 392.866 614.591 391.254 616.58 391.254 618.568 391.254 620.18 392.866 620.18 394.854Z" fill="#000000" fill-rule="evenodd" fill-opacity="1"/></g><g><path d="M622.803 394.854C622.803 396.842 621.192 398.454 619.203 398.454 617.215 398.454 615.604 396.842 615.604 394.854 615.604 392.866 617.215 391.254 619.203 391.254 621.192 391.254 622.803 392.866 622.803 394.854Z" fill="#000000" fill-rule="evenodd" fill-opacity="1"/></g><g><path d="M625.427 394.854C625.427 396.842 623.815 398.454 621.827 398.454 619.839 398.454 618.227 396.842 618.227 394.854 618.227 392.866 619.839 391.254 621.827 391.254 623.815 391.254 625.427 392.866 625.427 394.854Z" fill="#000000" fill-rule="evenodd" fill-opacity="1"/></g><g><path d="M628.051 394.854C628.051 396.842 626.439 398.454 624.451 398.454 622.463 398.454 620.851 396.842 620.851 394.854 620.851 392.866 622.463 391.254 624.451 391.254 626.439 391.254 628.051 392.866 628.051 394.854Z" fill="#000000" fill-rule="evenodd" fill-opacity="1"/></g><g><path d="M630.675 319.424C630.675 321.412 629.063 323.024 627.075 323.024 625.087 323.024 623.475 321.412 623.475 319.424 623.475 317.436 625.086 315.824 627.075 315.824 629.063 315.824 630.675 317.436 630.675 319.424Z" fill="#000000" fill-rule="evenodd" fill-opacity="1"/></g><g><path d="M633.298 394.854C633.298 396.842 631.686 398.454 629.698 398.454 627.71 398.454 626.098 396.842 626.098 394.854 626.098 392.866 627.71 391.254 629.698 391.254 631.686 391.254 633.298 392.866 633.298 394.854Z" fill="#000000" fill-rule="evenodd" fill-opacity="1"/></g><g><path d="M635.922 319.424C635.922 321.412 634.31 323.024 632.322 323.024 630.334 323.024 628.722 321.412 628.722 319.424 628.722 317.436 630.334 315.824 632.322 315.824 634.31 315.824 635.922 317.436 635.922 319.424Z" fill="#000000" fill-rule="evenodd" fill-opacity="1"/></g><g><path d="M638.546 319.424C638.546 321.412 636.934 323.024 634.946 323.024 632.958 323.024 631.346 321.412 631.346 319.424 631.346 317.436 632.958 315.824 634.946 315.824 636.934 315.824 638.546 317.436 638.546 319.424Z" fill="#000000" fill-rule="evenodd" fill-opacity="1"/></g><g><path d="M641.169 394.854C641.169 396.842 639.558 398.454 637.569 398.454 635.581 398.454 633.969 396.842 633.969 394.854 633.969 392.866 635.581 391.254 637.569 391.254 639.558 391.254 641.169 392.866 641.169 394.854Z" fill="#000000" fill-rule="evenodd" fill-opacity="1"/></g><g><path d="M643.793 394.854C643.793 396.842 642.181 398.454 640.193 398.454 638.205 398.454 636.593 396.842 636.593 394.854 636.593 392.866 638.205 391.254 640.193 391.254 642.181 391.254 643.793 392.866 643.793 394.854Z" fill="#000000" fill-rule="evenodd" fill-opacity="1"/></g><g><path d="M646.417 319.424C646.417 321.412 644.805 323.024 642.817 323.024 640.829 323.024 639.217 321.412 639.217 319.424 639.217 317.436 640.829 315.824 642.817 315.824 644.805 315.824 646.417 317.436 646.417 319.424Z" fill="#000000" fill-rule="evenodd" fill-opacity="1"/></g><g><path d="M649.041 319.424C649.041 321.412 647.429 323.024 645.441 323.024 643.453 323.024 641.841 321.412 641.841 319.424 641.841 317.436 643.453 315.824 645.441 315.824 647.429 315.824 649.041 317.436 649.041 319.424Z" fill="#000000" fill-rule="evenodd" fill-opacity="1"/></g><g><path d="M651.664 583.43C651.664 585.418 650.053 587.03 648.065 587.03 646.076 587.03 644.464 585.418 644.464 583.43 644.464 581.442 646.076 579.83 648.065 579.83 650.053 579.83 651.664 581.442 651.664 583.43Z" fill="#000000" fill-rule="evenodd" fill-opacity="1"/></g><g><path d="M654.288 394.854C654.288 396.842 652.677 398.454 650.688 398.454 648.7 398.454 647.088 396.842 647.088 394.854 647.088 392.866 648.7 391.254 650.688 391.254 652.676 391.254 654.288 392.866 654.288 394.854Z" fill="#000000" fill-rule="evenodd" fill-opacity="1"/></g><g><path d="M656.912 243.994C656.912 245.982 655.3 247.594 653.312 247.594 651.324 247.594 649.712 245.982 649.712 243.994 649.712 242.006 651.324 240.394 653.312 240.394 655.3 240.394 656.912 242.006 656.912 243.994Z" fill="#000000" fill-rule="evenodd" fill-opacity="1"/></g><g><path d="M659.536 394.854C659.536 396.842 657.924 398.454 655.936 398.454 653.948 398.454 652.336 396.842 652.336 394.854 652.336 392.866 653.948 391.254 655.936 391.254 657.924 391.254 659.536 392.866 659.536 394.854Z" fill="#000000" fill-rule="evenodd" fill-opacity="1"/></g><g><path d="M662.159 243.994C662.159 245.982 660.547 247.594 658.559 247.594 656.571 247.594 654.959 245.982 654.959 243.994 654.959 242.006 656.571 240.394 658.559 240.394 660.547 240.394 662.159 242.006 662.159 243.994Z" fill="#000000" fill-rule="evenodd" fill-opacity="1"/></g><g><path d="M664.783 243.994C664.783 245.982 663.171 247.594 661.183 247.594 659.195 247.594 657.583 245.982 657.583 243.994 657.583 242.006 659.195 240.394 661.183 240.394 663.171 240.394 664.783 242.006 664.783 243.994Z" fill="#000000" fill-rule="evenodd" fill-opacity="1"/></g><g><path d="M667.407 243.994C667.407 245.982 665.795 247.594 663.807 247.594 661.819 247.594 660.207 245.982 660.207 243.994 660.207 242.006 661.818 240.394 663.807 240.394 665.795 240.394 667.407 242.006 667.407 243.994Z" fill="#000000" fill-rule="evenodd" fill-opacity="1"/></g><g><path d="M670.03 394.854C670.03 396.842 668.418 398.454 666.43 398.454 664.442 398.454 662.83 396.842 662.83 394.854 662.83 392.866 664.442 391.254 666.43 391.254 668.418 391.254 670.03 392.866 670.03 394.854Z" fill="#000000" fill-rule="evenodd" fill-opacity="1"/></g><g><path d="M672.655 243.994C672.655 245.982 671.043 247.594 669.055 247.594 667.067 247.594 665.455 245.982 665.455 243.994 665.455 242.006 667.067 240.394 669.055 240.394 671.043 240.394 672.655 242.006 672.655 243.994Z" fill="#000000" fill-rule="evenodd" fill-opacity="1"/></g><g><path d="M675.277 243.994C675.277 245.982 673.666 247.594 671.677 247.594 669.689 247.594 668.078 245.982 668.078 243.994 668.078 242.006 669.689 240.394 671.677 240.394 673.666 240.394 675.277 242.006 675.277 243.994Z" fill="#000000" fill-rule="evenodd" fill-opacity="1"/></g><g><path d="M677.902 243.994C677.902 245.982 676.291 247.594 674.302 247.594 672.314 247.594 670.703 245.982 670.703 243.994 670.703 242.006 672.314 240.394 674.302 240.394 676.291 240.394 677.902 242.006 677.902 243.994Z" fill="#000000" fill-rule="evenodd" fill-opacity="1"/></g><g><path d="M680.525 394.854C680.525 396.842 678.913 398.454 676.925 398.454 674.937 398.454 673.325 396.842 673.325 394.854 673.325 392.866 674.937 391.254 676.925 391.254 678.913 391.254 680.525 392.866 680.525 394.854Z" fill="#000000" fill-rule="evenodd" fill-opacity="1"/></g><g><path d="M683.15 243.994C683.15 245.982 681.538 247.594 679.55 247.594 677.562 247.594 675.95 245.982 675.95 243.994 675.95 242.006 677.562 240.394 679.55 240.394 681.538 240.394 683.15 242.006 683.15 243.994Z" fill="#000000" fill-rule="evenodd" fill-opacity="1"/></g><g><path d="M685.772 394.854C685.772 396.842 684.161 398.454 682.172 398.454 680.184 398.454 678.573 396.842 678.573 394.854 678.573 392.866 680.184 391.254 682.172 391.254 684.161 391.254 685.772 392.866 685.772 394.854Z" fill="#000000" fill-rule="evenodd" fill-opacity="1"/></g><g><path d="M688.397 583.43C688.397 585.418 686.786 587.03 684.797 587.03 682.809 587.03 681.198 585.418 681.198 583.43 681.198 581.442 682.809 579.83 684.797 579.83 686.786 579.83 688.397 581.442 688.397 583.43Z" fill="#000000" fill-rule="evenodd" fill-opacity="1"/></g><g><path d="M691.02 583.43C691.02 585.418 689.408 587.03 687.42 587.03 685.432 587.03 683.82 585.418 683.82 583.43 683.82 581.442 685.432 579.83 687.42 579.83 689.408 579.83 691.02 581.442 691.02 583.43Z" fill="#000000" fill-rule="evenodd" fill-opacity="1"/></g><g><path d="M693.645 394.854C693.645 396.842 692.033 398.454 690.045 398.454 688.057 398.454 686.445 396.842 686.445 394.854 686.445 392.866 688.057 391.254 690.045 391.254 692.033 391.254 693.645 392.866 693.645 394.854Z" fill="#000000" fill-rule="evenodd" fill-opacity="1"/></g><g><path d="M696.267 243.994C696.267 245.982 694.656 247.594 692.667 247.594 690.679 247.594 689.068 245.982 689.068 243.994 689.068 242.006 690.679 240.394 692.667 240.394 694.656 240.394 696.267 242.006 696.267 243.994Z" fill="#000000" fill-rule="evenodd" fill-opacity="1"/></g><g><path d="M698.892 583.43C698.892 585.418 697.281 587.03 695.292 587.03 693.304 587.03 691.693 585.418 691.693 583.43 691.693 581.442 693.304 579.83 695.292 579.83 697.281 579.83 698.892 581.442 698.892 583.43Z" fill="#000000" fill-rule="evenodd" fill-opacity="1"/></g><g><path d="M701.515 243.994C701.515 245.982 699.903 247.594 697.915 247.594 695.927 247.594 694.315 245.982 694.315 243.994 694.315 242.006 695.927 240.394 697.915 240.394 699.903 240.394 701.515 242.006 701.515 243.994Z" fill="#000000" fill-rule="evenodd" fill-opacity="1"/></g><g><path d="M704.14 243.994C704.14 245.982 702.528 247.594 700.54 247.594 698.552 247.594 696.94 245.982 696.94 243.994 696.94 242.006 698.552 240.394 700.54 240.394 702.528 240.394 704.14 242.006 704.14 243.994Z" fill="#000000" fill-rule="evenodd" fill-opacity="1"/></g><g><path d="M706.763 394.854C706.763 396.842 705.151 398.454 703.162 398.454 701.174 398.454 699.562 396.842 699.562 394.854 699.562 392.866 701.174 391.254 703.162 391.254 705.151 391.254 706.763 392.866 706.763 394.854Z" fill="#000000" fill-rule="evenodd" fill-opacity="1"/></g><g><path d="M709.388 243.994C709.388 245.982 707.776 247.594 705.787 247.594 703.799 247.594 702.188 245.982 702.188 243.994 702.188 242.006 703.799 240.394 705.787 240.394 707.776 240.394 709.388 242.006 709.388 243.994Z" fill="#000000" fill-rule="evenodd" fill-opacity="1"/></g><g><path d="M712.01 394.854C712.01 396.842 710.398 398.454 708.41 398.454 706.422 398.454 704.81 396.842 704.81 394.854 704.81 392.866 706.422 391.254 708.41 391.254 710.398 391.254 712.01 392.866 712.01 394.854Z" fill="#000000" fill-rule="evenodd" fill-opacity="1"/></g><g><path d="M714.635 243.994C714.635 245.982 713.023 247.594 711.035 247.594 709.047 247.594 707.435 245.982 707.435 243.994 707.435 242.006 709.047 240.394 711.035 240.394 713.023 240.394 714.635 242.006 714.635 243.994Z" fill="#000000" fill-rule="evenodd" fill-opacity="1"/></g><g><path d="M717.258 243.994C717.258 245.982 715.646 247.594 713.657 247.594 711.669 247.594 710.057 245.982 710.057 243.994 710.057 242.006 711.669 240.394 713.657 240.394 715.646 240.394 717.258 242.006 717.258 243.994Z" fill="#000000" fill-rule="evenodd" fill-opacity="1"/></g><g><path d="M719.883 394.854C719.883 396.842 718.271 398.454 716.282 398.454 714.294 398.454 712.682 396.842 712.682 394.854 712.682 392.866 714.294 391.254 716.282 391.254 718.271 391.254 719.883 392.866 719.883 394.854Z" fill="#000000" fill-rule="evenodd" fill-opacity="1"/></g><g><path d="M722.505 243.994C722.505 245.982 720.893 247.594 718.905 247.594 716.917 247.594 715.305 245.982 715.305 243.994 715.305 242.006 716.917 240.394 718.905 240.394 720.893 240.394 722.505 242.006 722.505 243.994Z" fill="#000000" fill-rule="evenodd" fill-opacity="1"/></g><g><path d="M725.13 243.994C725.13 245.982 723.518 247.594 721.53 247.594 719.542 247.594 717.93 245.982 717.93 243.994 717.93 242.006 719.542 240.394 721.53 240.394 723.518 240.394 725.13 242.006 725.13 243.994Z" fill="#000000" fill-rule="evenodd" fill-opacity="1"/></g><g><path d="M727.753 243.994C727.753 245.982 726.141 247.594 724.152 247.594 722.164 247.594 720.552 245.982 720.552 243.994 720.552 242.006 722.164 240.394 724.152 240.394 726.141 240.394 727.753 242.006 727.753 243.994Z" fill="#000000" fill-rule="evenodd" fill-opacity="1"/></g><g><path d="M730.378 394.854C730.378 396.842 728.766 398.454 726.777 398.454 724.789 398.454 723.177 396.842 723.177 394.854 723.177 392.866 724.789 391.254 726.777 391.254 728.766 391.254 730.378 392.866 730.378 394.854Z" fill="#000000" fill-rule="evenodd" fill-opacity="1"/></g><g><path d="M733 243.994C733 245.982 731.388 247.594 729.4 247.594 727.412 247.594 725.8 245.982 725.8 243.994 725.8 242.006 727.412 240.394 729.4 240.394 731.388 240.394 733 242.006 733 243.994Z" fill="#000000" fill-rule="evenodd" fill-opacity="1"/></g><g><path d="M735.622 394.854C735.622 396.842 734.011 398.454 732.022 398.454 730.034 398.454 728.422 396.842 728.422 394.854 728.422 392.866 730.034 391.254 732.022 391.254 734.011 391.254 735.622 392.866 735.622 394.854Z" fill="#000000" fill-rule="evenodd" fill-opacity="1"/></g><g><path d="M738.247 394.854C738.247 396.842 736.636 398.454 734.647 398.454 732.659 398.454 731.047 396.842 731.047 394.854 731.047 392.866 732.659 391.254 734.647 391.254 736.636 391.254 738.247 392.866 738.247 394.854Z" fill="#000000" fill-rule="evenodd" fill-opacity="1"/></g><g><path d="M740.87 394.854C740.87 396.842 739.258 398.454 737.27 398.454 735.282 398.454 733.67 396.842 733.67 394.854 733.67 392.866 735.282 391.254 737.27 391.254 739.258 391.254 740.87 392.866 740.87 394.854Z" fill="#000000" fill-rule="evenodd" fill-opacity="1"/></g><g><path d="M743.495 243.994C743.495 245.982 741.883 247.594 739.895 247.594 737.907 247.594 736.295 245.982 736.295 243.994 736.295 242.006 737.907 240.394 739.895 240.394 741.883 240.394 743.495 242.006 743.495 243.994Z" fill="#000000" fill-rule="evenodd" fill-opacity="1"/></g><g><path d="M746.117 583.43C746.117 585.418 744.506 587.03 742.517 587.03 740.529 587.03 738.917 585.418 738.917 583.43 738.917 581.442 740.529 579.83 742.517 579.83 744.506 579.83 746.117 581.442 746.117 583.43Z" fill="#000000" fill-rule="evenodd" fill-opacity="1"/></g><g><path d="M748.742 394.854C748.742 396.842 747.131 398.454 745.142 398.454 743.154 398.454 741.542 396.842 741.542 394.854 741.542 392.866 743.154 391.254 745.142 391.254 747.131 391.254 748.742 392.866 748.742 394.854Z" fill="#000000" fill-rule="evenodd" fill-opacity="1"/></g><g><path d="M751.365 243.994C751.365 245.982 749.753 247.594 747.765 247.594 745.777 247.594 744.165 245.982 744.165 243.994 744.165 242.006 745.777 240.394 747.765 240.394 749.753 240.394 751.365 242.006 751.365 243.994Z" fill="#000000" fill-rule="evenodd" fill-opacity="1"/></g><g><path d="M753.99 394.854C753.99 396.842 752.378 398.454 750.39 398.454 748.402 398.454 746.79 396.842 746.79 394.854 746.79 392.866 748.402 391.254 750.39 391.254 752.378 391.254 753.99 392.866 753.99 394.854Z" fill="#000000" fill-rule="evenodd" fill-opacity="1"/></g><g><path d="M756.612 583.43C756.612 585.418 755.001 587.03 753.012 587.03 751.024 587.03 749.412 585.418 749.412 583.43 749.412 581.442 751.024 579.83 753.012 579.83 755.001 579.83 756.612 581.442 756.612 583.43Z" fill="#000000" fill-rule="evenodd" fill-opacity="1"/></g><g><path d="M759.237 583.43C759.237 585.418 757.626 587.03 755.637 587.03 753.649 587.03 752.037 585.418 752.037 583.43 752.037 581.442 753.649 579.83 755.637 579.83 757.626 579.83 759.237 581.442 759.237 583.43Z" fill="#000000" fill-rule="evenodd" fill-opacity="1"/></g><g><path d="M761.86 583.43C761.86 585.418 760.248 587.03 758.26 587.03 756.272 587.03 754.66 585.418 754.66 583.43 754.66 581.442 756.272 579.83 758.26 579.83 760.248 579.83 761.86 581.442 761.86 583.43Z" fill="#000000" fill-rule="evenodd" fill-opacity="1"/></g><g><path d="M764.485 319.424C764.485 321.412 762.873 323.024 760.885 323.024 758.897 323.024 757.285 321.412 757.285 319.424 757.285 317.436 758.897 315.824 760.885 315.824 762.873 315.824 764.485 317.436 764.485 319.424Z" fill="#000000" fill-rule="evenodd" fill-opacity="1"/></g><g><path d="M767.108 583.43C767.108 585.418 765.496 587.03 763.508 587.03 761.519 587.03 759.907 585.418 759.907 583.43 759.907 581.442 761.519 579.83 763.508 579.83 765.496 579.83 767.108 581.442 767.108 583.43Z" fill="#000000" fill-rule="evenodd" fill-opacity="1"/></g><g><path d="M769.733 319.424C769.733 321.412 768.121 323.024 766.133 323.024 764.144 323.024 762.532 321.412 762.532 319.424 762.532 317.436 764.144 315.824 766.133 315.824 768.121 315.824 769.733 317.436 769.733 319.424Z" fill="#000000" fill-rule="evenodd" fill-opacity="1"/></g><g><path d="M772.355 583.43C772.355 585.418 770.743 587.03 768.755 587.03 766.767 587.03 765.155 585.418 765.155 583.43 765.155 581.442 766.767 579.83 768.755 579.83 770.743 579.83 772.355 581.442 772.355 583.43Z" fill="#000000" fill-rule="evenodd" fill-opacity="1"/></g><g><path d="M774.98 394.854C774.98 396.842 773.368 398.454 771.38 398.454 769.392 398.454 767.78 396.842 767.78 394.854 767.78 392.866 769.392 391.254 771.38 391.254 773.368 391.254 774.98 392.866 774.98 394.854Z" fill="#000000" fill-rule="evenodd" fill-opacity="1"/></g><g><path d="M777.603 583.43C777.603 585.418 775.991 587.03 774.003 587.03 772.014 587.03 770.402 585.418 770.402 583.43 770.402 581.442 772.014 579.83 774.003 579.83 775.991 579.83 777.603 581.442 777.603 583.43Z" fill="#000000" fill-rule="evenodd" fill-opacity="1"/></g><g><path d="M780.228 394.854C780.228 396.842 778.616 398.454 776.628 398.454 774.639 398.454 773.027 396.842 773.027 394.854 773.027 392.866 774.639 391.254 776.628 391.254 778.616 391.254 780.228 392.866 780.228 394.854Z" fill="#000000" fill-rule="evenodd" fill-opacity="1"/></g><g><path d="M782.85 583.43C782.85 585.418 781.238 587.03 779.25 587.03 777.262 587.03 775.65 585.418 775.65 583.43 775.65 581.442 777.262 579.83 779.25 579.83 781.238 579.83 782.85 581.442 782.85 583.43Z" fill="#000000" fill-rule="evenodd" fill-opacity="1"/></g><g><path d="M785.475 583.43C785.475 585.418 783.863 587.03 781.875 587.03 779.887 587.03 778.275 585.418 778.275 583.43 778.275 581.442 779.887 579.83 781.875 579.83 783.863 579.83 785.475 581.442 785.475 583.43Z" fill="#000000" fill-rule="evenodd" fill-opacity="1"/></g><g><path d="M788.098 243.994C788.098 245.982 786.486 247.594 784.497 247.594 782.509 247.594 780.897 245.982 780.897 243.994 780.897 242.006 782.509 240.394 784.497 240.394 786.486 240.394 788.098 242.006 788.098 243.994Z" fill="#000000" fill-rule="evenodd" fill-opacity="1"/></g><g><path d="M790.723 319.424C790.723 321.412 789.111 323.024 787.122 323.024 785.134 323.024 783.522 321.412 783.522 319.424 783.522 317.436 785.134 315.824 787.122 315.824 789.111 315.824 790.723 317.436 790.723 319.424Z" fill="#000000" fill-rule="evenodd" fill-opacity="1"/></g><g><path d="M793.345 319.424C793.345 321.412 791.733 323.024 789.745 323.024 787.757 323.024 786.145 321.412 786.145 319.424 786.145 317.436 787.757 315.824 789.745 315.824 791.733 315.824 793.345 317.436 793.345 319.424Z" fill="#000000" fill-rule="evenodd" fill-opacity="1"/></g><g><path d="M795.97 243.994C795.97 245.982 794.358 247.594 792.37 247.594 790.382 247.594 788.77 245.982 788.77 243.994 788.77 242.006 790.382 240.394 792.37 240.394 794.358 240.394 795.97 242.006 795.97 243.994Z" fill="#000000" fill-rule="evenodd" fill-opacity="1"/></g><g><path d="M798.593 319.424C798.593 321.412 796.981 323.024 794.992 323.024 793.004 323.024 791.392 321.412 791.392 319.424 791.392 317.436 793.004 315.824 794.992 315.824 796.981 315.824 798.593 317.436 798.593 319.424Z" fill="#000000" fill-rule="evenodd" fill-opacity="1"/></g><g><path d="M801.218 319.424C801.218 321.412 799.606 323.024 797.617 323.024 795.629 323.024 794.017 321.412 794.017 319.424 794.017 317.436 795.629 315.824 797.617 315.824 799.606 315.824 801.218 317.436 801.218 319.424Z" fill="#000000" fill-rule="evenodd" fill-opacity="1"/></g><g><path d="M803.84 583.43C803.84 585.418 802.228 587.03 800.24 587.03 798.252 587.03 796.64 585.418 796.64 583.43 796.64 581.442 798.252 579.83 800.24 579.83 802.228 579.83 803.84 581.442 803.84 583.43Z" fill="#000000" fill-rule="evenodd" fill-opacity="1"/></g><g><path d="M806.465 319.424C806.465 321.412 804.853 323.024 802.865 323.024 800.877 323.024 799.265 321.412 799.265 319.424 799.265 317.436 800.877 315.824 802.865 315.824 804.853 315.824 806.465 317.436 806.465 319.424Z" fill="#000000" fill-rule="evenodd" fill-opacity="1"/></g><g><path d="M809.088 583.43C809.088 585.418 807.476 587.03 805.487 587.03 803.499 587.03 801.887 585.418 801.887 583.43 801.887 581.442 803.499 579.83 805.487 579.83 807.476 579.83 809.088 581.442 809.088 583.43Z" fill="#000000" fill-rule="evenodd" fill-opacity="1"/></g><g><path d="M811.713 583.43C811.713 585.418 810.101 587.03 808.112 587.03 806.124 587.03 804.512 585.418 804.512 583.43 804.512 581.442 806.124 579.83 808.112 579.83 810.101 579.83 811.713 581.442 811.713 583.43Z" fill="#000000" fill-rule="evenodd" fill-opacity="1"/></g><g><path d="M814.335 583.43C814.335 585.418 812.723 587.03 810.735 587.03 808.747 587.03 807.135 585.418 807.135 583.43 807.135 581.442 808.747 579.83 810.735 579.83 812.723 579.83 814.335 581.442 814.335 583.43Z" fill="#000000" fill-rule="evenodd" fill-opacity="1"/></g><g><path d="M816.96 394.854C816.96 396.842 815.348 398.454 813.36 398.454 811.372 398.454 809.76 396.842 809.76 394.854 809.76 392.866 811.372 391.254 813.36 391.254 815.348 391.254 816.96 392.866 816.96 394.854Z" fill="#000000" fill-rule="evenodd" fill-opacity="1"/></g><g><path d="M819.583 583.43C819.583 585.418 817.971 587.03 815.982 587.03 813.994 587.03 812.382 585.418 812.382 583.43 812.382 581.442 813.994 579.83 815.982 579.83 817.971 579.83 819.583 581.442 819.583 583.43Z" fill="#000000" fill-rule="evenodd" fill-opacity="1"/></g><g><path d="M822.208 243.994C822.208 245.982 820.596 247.594 818.607 247.594 816.619 247.594 815.007 245.982 815.007 243.994 815.007 242.006 816.619 240.394 818.607 240.394 820.596 240.394 822.208 242.006 822.208 243.994Z" fill="#000000" fill-rule="evenodd" fill-opacity="1"/></g><g><path d="M824.83 583.43C824.83 585.418 823.218 587.03 821.23 587.03 819.242 587.03 817.63 585.418 817.63 583.43 817.63 581.442 819.242 579.83 821.23 579.83 823.218 579.83 824.83 581.442 824.83 583.43Z" fill="#000000" fill-rule="evenodd" fill-opacity="1"/></g><g><path d="M827.455 243.994C827.455 245.982 825.843 247.594 823.855 247.594 821.867 247.594 820.255 245.982 820.255 243.994 820.255 242.006 821.867 240.394 823.855 240.394 825.843 240.394 827.455 242.006 827.455 243.994Z" fill="#000000" fill-rule="evenodd" fill-opacity="1"/></g><g><path d="M830.078 583.43C830.078 585.418 828.466 587.03 826.478 587.03 824.489 587.03 822.878 585.418 822.878 583.43 822.878 581.442 824.489 579.83 826.478 579.83 828.466 579.83 830.078 581.442 830.078 583.43Z" fill="#000000" fill-rule="evenodd" fill-opacity="1"/></g><g><path d="M832.703 394.854C832.703 396.842 831.091 398.454 829.103 398.454 827.114 398.454 825.503 396.842 825.503 394.854 825.503 392.866 827.114 391.254 829.103 391.254 831.091 391.254 832.703 392.866 832.703 394.854Z" fill="#000000" fill-rule="evenodd" fill-opacity="1"/></g><g><path d="M835.325 583.43C835.325 585.418 833.713 587.03 831.725 587.03 829.737 587.03 828.125 585.418 828.125 583.43 828.125 581.442 829.737 579.83 831.725 579.83 833.713 579.83 835.325 581.442 835.325 583.43Z" fill="#000000" fill-rule="evenodd" fill-opacity="1"/></g><g><path d="M837.95 583.43C837.95 585.418 836.338 587.03 834.35 587.03 832.362 587.03 830.75 585.418 830.75 583.43 830.75 581.442 832.362 579.83 834.35 579.83 836.338 579.83 837.95 581.442 837.95 583.43Z" fill="#000000" fill-rule="evenodd" fill-opacity="1"/></g><g><path d="M840.573 243.994C840.573 245.982 838.961 247.594 836.973 247.594 834.984 247.594 833.372 245.982 833.372 243.994 833.372 242.006 834.984 240.394 836.973 240.394 838.961 240.394 840.573 242.006 840.573 243.994Z" fill="#000000" fill-rule="evenodd" fill-opacity="1"/></g><g><path d="M843.198 243.994C843.198 245.982 841.586 247.594 839.598 247.594 837.609 247.594 835.997 245.982 835.997 243.994 835.997 242.006 837.609 240.394 839.598 240.394 841.586 240.394 843.198 242.006 843.198 243.994Z" fill="#000000" fill-rule="evenodd" fill-opacity="1"/></g><g><path d="M845.82 394.854C845.82 396.842 844.208 398.454 842.22 398.454 840.232 398.454 838.62 396.842 838.62 394.854 838.62 392.866 840.232 391.254 842.22 391.254 844.208 391.254 845.82 392.866 845.82 394.854Z" fill="#000000" fill-rule="evenodd" fill-opacity="1"/></g><g><path d="M848.445 243.994C848.445 245.982 846.833 247.594 844.845 247.594 842.857 247.594 841.245 245.982 841.245 243.994 841.245 242.006 842.857 240.394 844.845 240.394 846.833 240.394 848.445 242.006 848.445 243.994Z" fill="#000000" fill-rule="evenodd" fill-opacity="1"/></g><g><path d="M851.068 583.43C851.068 585.418 849.456 587.03 847.468 587.03 845.479 587.03 843.867 585.418 843.867 583.43 843.867 581.442 845.479 579.83 847.468 579.83 849.456 579.83 851.068 581.442 851.068 583.43Z" fill="#000000" fill-rule="evenodd" fill-opacity="1"/></g><g><path d="M853.693 243.994C853.693 245.982 852.081 247.594 850.093 247.594 848.104 247.594 846.492 245.982 846.492 243.994 846.492 242.006 848.104 240.394 850.093 240.394 852.081 240.394 853.693 242.006 853.693 243.994Z" fill="#000000" fill-rule="evenodd" fill-opacity="1"/></g><g><path d="M856.315 583.43C856.315 585.418 854.703 587.03 852.715 587.03 850.727 587.03 849.115 585.418 849.115 583.43 849.115 581.442 850.727 579.83 852.715 579.83 854.703 579.83 856.315 581.442 856.315 583.43Z" fill="#000000" fill-rule="evenodd" fill-opacity="1"/></g><g><path d="M858.94 243.994C858.94 245.982 857.328 247.594 855.34 247.594 853.352 247.594 851.74 245.982 851.74 243.994 851.74 242.006 853.352 240.394 855.34 240.394 857.328 240.394 858.94 242.006 858.94 243.994Z" fill="#000000" fill-rule="evenodd" fill-opacity="1"/></g><g><path d="M861.562 583.43C861.562 585.418 859.951 587.03 857.963 587.03 855.974 587.03 854.362 585.418 854.362 583.43 854.362 581.442 855.974 579.83 857.963 579.83 859.951 579.83 861.562 581.442 861.562 583.43Z" fill="#000000" fill-rule="evenodd" fill-opacity="1"/></g><g><path d="M864.188 583.43C864.188 585.418 862.576 587.03 860.588 587.03 858.599 587.03 856.987 585.418 856.987 583.43 856.987 581.442 858.599 579.83 860.588 579.83 862.576 579.83 864.188 581.442 864.188 583.43Z" fill="#000000" fill-rule="evenodd" fill-opacity="1"/></g><g><path d="M866.81 583.43C866.81 585.418 865.198 587.03 863.21 587.03 861.222 587.03 859.61 585.418 859.61 583.43 859.61 581.442 861.222 579.83 863.21 579.83 865.198 579.83 866.81 581.442 866.81 583.43Z" fill="#000000" fill-rule="evenodd" fill-opacity="1"/></g><g><path d="M869.435 243.994C869.435 245.982 867.823 247.594 865.835 247.594 863.847 247.594 862.235 245.982 862.235 243.994 862.235 242.006 863.847 240.394 865.835 240.394 867.823 240.394 869.435 242.006 869.435 243.994Z" fill="#000000" fill-rule="evenodd" fill-opacity="1"/></g><g><path d="M872.057 583.43C872.057 585.418 870.446 587.03 868.458 587.03 866.469 587.03 864.857 585.418 864.857 583.43 864.857 581.442 866.469 579.83 868.458 579.83 870.446 579.83 872.057 581.442 872.057 583.43Z" fill="#000000" fill-rule="evenodd" fill-opacity="1"/></g><g><path d="M874.682 243.994C874.682 245.982 873.071 247.594 871.083 247.594 869.094 247.594 867.482 245.982 867.482 243.994 867.482 242.006 869.094 240.394 871.083 240.394 873.071 240.394 874.682 242.006 874.682 243.994Z" fill="#000000" fill-rule="evenodd" fill-opacity="1"/></g><g><path d="M877.305 583.43C877.305 585.418 875.693 587.03 873.705 587.03 871.717 587.03 870.105 585.418 870.105 583.43 870.105 581.442 871.717 579.83 873.705 579.83 875.693 579.83 877.305 581.442 877.305 583.43Z" fill="#000000" fill-rule="evenodd" fill-opacity="1"/></g><g><path d="M879.93 243.994C879.93 245.982 878.318 247.594 876.33 247.594 874.342 247.594 872.73 245.982 872.73 243.994 872.73 242.006 874.342 240.394 876.33 240.394 878.318 240.394 879.93 242.006 879.93 243.994Z" fill="#000000" fill-rule="evenodd" fill-opacity="1"/></g><g><path d="M882.552 243.994C882.552 245.982 880.941 247.594 878.953 247.594 876.964 247.594 875.352 245.982 875.352 243.994 875.352 242.006 876.964 240.394 878.953 240.394 880.941 240.394 882.552 242.006 882.552 243.994Z" fill="#000000" fill-rule="evenodd" fill-opacity="1"/></g><g><path d="M885.175 243.994C885.175 245.982 883.563 247.594 881.575 247.594 879.587 247.594 877.975 245.982 877.975 243.994 877.975 242.006 879.587 240.394 881.575 240.394 883.563 240.394 885.175 242.006 885.175 243.994Z" fill="#000000" fill-rule="evenodd" fill-opacity="1"/></g><g><path d="M887.8 583.43C887.8 585.418 886.188 587.03 884.2 587.03 882.212 587.03 880.6 585.418 880.6 583.43 880.6 581.442 882.212 579.83 884.2 579.83 886.188 579.83 887.8 581.442 887.8 583.43Z" fill="#000000" fill-rule="evenodd" fill-opacity="1"/></g><g><path d="M890.422 583.43C890.422 585.418 888.811 587.03 886.823 587.03 884.834 587.03 883.222 585.418 883.222 583.43 883.222 581.442 884.834 579.83 886.823 579.83 888.811 579.83 890.422 581.442 890.422 583.43Z" fill="#000000" fill-rule="evenodd" fill-opacity="1"/></g><g><path d="M893.047 243.994C893.047 245.982 891.436 247.594 889.448 247.594 887.459 247.594 885.847 245.982 885.847 243.994 885.847 242.006 887.459 240.394 889.448 240.394 891.436 240.394 893.047 242.006 893.047 243.994Z" fill="#000000" fill-rule="evenodd" fill-opacity="1"/></g><g><path d="M895.67 243.994C895.67 245.982 894.058 247.594 892.07 247.594 890.082 247.594 888.47 245.982 888.47 243.994 888.47 242.006 890.082 240.394 892.07 240.394 894.058 240.394 895.67 242.006 895.67 243.994Z" fill="#000000" fill-rule="evenodd" fill-opacity="1"/></g><g><path d="M898.295 583.43C898.295 585.418 896.683 587.03 894.695 587.03 892.707 587.03 891.095 585.418 891.095 583.43 891.095 581.442 892.707 579.83 894.695 579.83 896.683 579.83 898.295 581.442 898.295 583.43Z" fill="#000000" fill-rule="evenodd" fill-opacity="1"/></g><g><path d="M900.917 243.994C900.917 245.982 899.306 247.594 897.318 247.594 895.329 247.594 893.718 245.982 893.718 243.994 893.718 242.006 895.329 240.394 897.318 240.394 899.306 240.394 900.917 242.006 900.917 243.994Z" fill="#000000" fill-rule="evenodd" fill-opacity="1"/></g><g><path d="M903.542 583.43C903.542 585.418 901.931 587.03 899.943 587.03 897.954 587.03 896.343 585.418 896.343 583.43 896.343 581.442 897.954 579.83 899.943 579.83 901.931 579.83 903.542 581.442 903.542 583.43Z" fill="#000000" fill-rule="evenodd" fill-opacity="1"/></g><g><path d="M906.165 243.994C906.165 245.982 904.553 247.594 902.565 247.594 900.577 247.594 898.965 245.982 898.965 243.994 898.965 242.006 900.577 240.394 902.565 240.394 904.553 240.394 906.165 242.006 906.165 243.994Z" fill="#000000" fill-rule="evenodd" fill-opacity="1"/></g><g><path d="M908.79 583.43C908.79 585.418 907.178 587.03 905.19 587.03 903.202 587.03 901.59 585.418 901.59 583.43 901.59 581.442 903.202 579.83 905.19 579.83 907.178 579.83 908.79 581.442 908.79 583.43Z" fill="#000000" fill-rule="evenodd" fill-opacity="1"/></g><g><path d="M911.412 243.994C911.412 245.982 909.801 247.594 907.812 247.594 905.824 247.594 904.213 245.982 904.213 243.994 904.213 242.006 905.824 240.394 907.812 240.394 909.801 240.394 911.412 242.006 911.412 243.994Z" fill="#000000" fill-rule="evenodd" fill-opacity="1"/></g><g><path d="M914.037 583.43C914.037 585.418 912.426 587.03 910.438 587.03 908.449 587.03 906.838 585.418 906.838 583.43 906.838 581.442 908.449 579.83 910.438 579.83 912.426 579.83 914.037 581.442 914.037 583.43Z" fill="#000000" fill-rule="evenodd" fill-opacity="1"/></g><g><path d="M916.66 583.43C916.66 585.418 915.048 587.03 913.06 587.03 911.072 587.03 909.46 585.418 909.46 583.43 909.46 581.442 911.072 579.83 913.06 579.83 915.048 579.83 916.66 581.442 916.66 583.43Z" fill="#000000" fill-rule="evenodd" fill-opacity="1"/></g><g><path d="M919.285 583.43C919.285 585.418 917.673 587.03 915.685 587.03 913.697 587.03 912.085 585.418 912.085 583.43 912.085 581.442 913.697 579.83 915.685 579.83 917.673 579.83 919.285 581.442 919.285 583.43Z" fill="#000000" fill-rule="evenodd" fill-opacity="1"/></g><g><path d="M921.907 319.424C921.907 321.412 920.296 323.024 918.307 323.024 916.319 323.024 914.708 321.412 914.708 319.424 914.708 317.436 916.319 315.824 918.307 315.824 920.296 315.824 921.907 317.436 921.907 319.424Z" fill="#000000" fill-rule="evenodd" fill-opacity="1"/></g><g><path d="M924.532 583.43C924.532 585.418 922.921 587.03 920.932 587.03 918.944 587.03 917.333 585.418 917.333 583.43 917.333 581.442 918.944 579.83 920.932 579.83 922.921 579.83 924.532 581.442 924.532 583.43Z" fill="#000000" fill-rule="evenodd" fill-opacity="1"/></g><g><path d="M927.155 394.854C927.155 396.842 925.543 398.454 923.555 398.454 921.567 398.454 919.955 396.842 919.955 394.854 919.955 392.866 921.567 391.254 923.555 391.254 925.543 391.254 927.155 392.866 927.155 394.854Z" fill="#000000" fill-rule="evenodd" fill-opacity="1"/></g><g><path d="M929.78 319.424C929.78 321.412 928.168 323.024 926.18 323.024 924.192 323.024 922.58 321.412 922.58 319.424 922.58 317.436 924.192 315.824 926.18 315.824 928.168 315.824 929.78 317.436 929.78 319.424Z" fill="#000000" fill-rule="evenodd" fill-opacity="1"/></g><g><path d="M932.403 319.424C932.403 321.412 930.791 323.024 928.803 323.024 926.814 323.024 925.203 321.412 925.203 319.424 925.203 317.436 926.814 315.824 928.803 315.824 930.791 315.824 932.403 317.436 932.403 319.424Z" fill="#000000" fill-rule="evenodd" fill-opacity="1"/></g><g><path d="M935.028 394.854C935.028 396.842 933.416 398.454 931.428 398.454 929.439 398.454 927.828 396.842 927.828 394.854 927.828 392.866 929.439 391.254 931.428 391.254 933.416 391.254 935.028 392.866 935.028 394.854Z" fill="#000000" fill-rule="evenodd" fill-opacity="1"/></g><g><path d="M937.65 319.424C937.65 321.412 936.038 323.024 934.05 323.024 932.062 323.024 930.45 321.412 930.45 319.424 930.45 317.436 932.062 315.824 934.05 315.824 936.038 315.824 937.65 317.436 937.65 319.424Z" fill="#000000" fill-rule="evenodd" fill-opacity="1"/></g><g><path d="M940.275 583.43C940.275 585.418 938.663 587.03 936.675 587.03 934.687 587.03 933.075 585.418 933.075 583.43 933.075 581.442 934.687 579.83 936.675 579.83 938.663 579.83 940.275 581.442 940.275 583.43Z" fill="#000000" fill-rule="evenodd" fill-opacity="1"/></g><g><path d="M942.898 583.43C942.898 585.418 941.286 587.03 939.298 587.03 937.309 587.03 935.698 585.418 935.698 583.43 935.698 581.442 937.309 579.83 939.298 579.83 941.286 579.83 942.898 581.442 942.898 583.43Z" fill="#000000" fill-rule="evenodd" fill-opacity="1"/></g><g><path d="M945.523 583.43C945.523 585.418 943.911 587.03 941.923 587.03 939.934 587.03 938.323 585.418 938.323 583.43 938.323 581.442 939.934 579.83 941.923 579.83 943.911 579.83 945.523 581.442 945.523 583.43Z" fill="#000000" fill-rule="evenodd" fill-opacity="1"/></g><g><path d="M948.145 319.424C948.145 321.412 946.533 323.024 944.545 323.024 942.557 323.024 940.945 321.412 940.945 319.424 940.945 317.436 942.557 315.824 944.545 315.824 946.533 315.824 948.145 317.436 948.145 319.424Z" fill="#000000" fill-rule="evenodd" fill-opacity="1"/></g><g><path d="M950.77 583.43C950.77 585.418 949.158 587.03 947.17 587.03 945.182 587.03 943.57 585.418 943.57 583.43 943.57 581.442 945.182 579.83 947.17 579.83 949.158 579.83 950.77 581.442 950.77 583.43Z" fill="#000000" fill-rule="evenodd" fill-opacity="1"/></g><g><path d="M953.393 394.854C953.393 396.842 951.781 398.454 949.793 398.454 947.804 398.454 946.193 396.842 946.193 394.854 946.193 392.866 947.804 391.254 949.793 391.254 951.781 391.254 953.393 392.866 953.393 394.854Z" fill="#000000" fill-rule="evenodd" fill-opacity="1"/></g><g><path d="M956.018 583.43C956.018 585.418 954.406 587.03 952.418 587.03 950.429 587.03 948.818 585.418 948.818 583.43 948.818 581.442 950.429 579.83 952.418 579.83 954.406 579.83 956.018 581.442 956.018 583.43Z" fill="#000000" fill-rule="evenodd" fill-opacity="1"/></g><g><path d="M958.64 319.424C958.64 321.412 957.028 323.024 955.04 323.024 953.052 323.024 951.44 321.412 951.44 319.424 951.44 317.436 953.052 315.824 955.04 315.824 957.028 315.824 958.64 317.436 958.64 319.424Z" fill="#000000" fill-rule="evenodd" fill-opacity="1"/></g><g><path d="M961.265 583.43C961.265 585.418 959.653 587.03 957.665 587.03 955.677 587.03 954.065 585.418 954.065 583.43 954.065 581.442 955.677 579.83 957.665 579.83 959.653 579.83 961.265 581.442 961.265 583.43Z" fill="#000000" fill-rule="evenodd" fill-opacity="1"/></g><g><path d="M963.888 243.994C963.888 245.982 962.276 247.594 960.288 247.594 958.299 247.594 956.688 245.982 956.688 243.994 956.688 242.006 958.299 240.394 960.288 240.394 962.276 240.394 963.888 242.006 963.888 243.994Z" fill="#000000" fill-rule="evenodd" fill-opacity="1"/></g><g><path d="M966.513 583.43C966.513 585.418 964.901 587.03 962.913 587.03 960.924 587.03 959.313 585.418 959.313 583.43 959.313 581.442 960.924 579.83 962.913 579.83 964.901 579.83 966.513 581.442 966.513 583.43Z" fill="#000000" fill-rule="evenodd" fill-opacity="1"/></g><g><path d="M969.135 583.43C969.135 585.418 967.523 587.03 965.535 587.03 963.547 587.03 961.935 585.418 961.935 583.43 961.935 581.442 963.547 579.83 965.535 579.83 967.523 579.83 969.135 581.442 969.135 583.43Z" fill="#000000" fill-rule="evenodd" fill-opacity="1"/></g><g><path d="M971.76 583.43C971.76 585.418 970.148 587.03 968.16 587.03 966.172 587.03 964.56 585.418 964.56 583.43 964.56 581.442 966.172 579.83 968.16 579.83 970.148 579.83 971.76 581.442 971.76 583.43Z" fill="#000000" fill-rule="evenodd" fill-opacity="1"/></g><g><path d="M974.383 394.854C974.383 396.842 972.771 398.454 970.783 398.454 968.794 398.454 967.183 396.842 967.183 394.854 967.183 392.866 968.794 391.254 970.783 391.254 972.771 391.254 974.383 392.866 974.383 394.854Z" fill="#000000" fill-rule="evenodd" fill-opacity="1"/></g><g><path d="M977.008 243.994C977.008 245.982 975.396 247.594 973.408 247.594 971.419 247.594 969.808 245.982 969.808 243.994 969.808 242.006 971.419 240.394 973.408 240.394 975.396 240.394 977.008 242.006 977.008 243.994Z" fill="#000000" fill-rule="evenodd" fill-opacity="1"/></g><g><path d="M979.63 394.854C979.63 396.842 978.018 398.454 976.03 398.454 974.042 398.454 972.43 396.842 972.43 394.854 972.43 392.866 974.042 391.254 976.03 391.254 978.018 391.254 979.63 392.866 979.63 394.854Z" fill="#000000" fill-rule="evenodd" fill-opacity="1"/></g><g><path d="M982.255 319.424C982.255 321.412 980.643 323.024 978.655 323.024 976.667 323.024 975.055 321.412 975.055 319.424 975.055 317.436 976.667 315.824 978.655 315.824 980.643 315.824 982.255 317.436 982.255 319.424Z" fill="#000000" fill-rule="evenodd" fill-opacity="1"/></g><g><path d="M984.878 243.994C984.878 245.982 983.266 247.594 981.278 247.594 979.289 247.594 977.678 245.982 977.678 243.994 977.678 242.006 979.289 240.394 981.278 240.394 983.266 240.394 984.878 242.006 984.878 243.994Z" fill="#000000" fill-rule="evenodd" fill-opacity="1"/></g><g><path d="M987.503 243.994C987.503 245.982 985.891 247.594 983.903 247.594 981.914 247.594 980.303 245.982 980.303 243.994 980.303 242.006 981.914 240.394 983.903 240.394 985.891 240.394 987.503 242.006 987.503 243.994Z" fill="#000000" fill-rule="evenodd" fill-opacity="1"/></g><g><path d="M990.125 319.424C990.125 321.412 988.513 323.024 986.525 323.024 984.537 323.024 982.925 321.412 982.925 319.424 982.925 317.436 984.537 315.824 986.525 315.824 988.513 315.824 990.125 317.436 990.125 319.424Z" fill="#000000" fill-rule="evenodd" fill-opacity="1"/></g></g></g></g></g></g></svg>